<svg width="289" height="31" viewBox="0 0 289 31" fill="none" xmlns="http://www.w3.org/2000/svg">
<path d="M7.31998 24.72H16.28V30H0.47998V1.92002H7.31998V24.72Z" fill="#141414"/>
<path d="M41.5825 7.68002V30H34.7425V26.96C34.0491 27.9467 33.1025 28.7467 31.9025 29.36C30.7291 29.9467 29.4225 30.24 27.9825 30.24C26.2758 30.24 24.7691 29.8667 23.4625 29.12C22.1558 28.3467 21.1425 27.24 20.4225 25.8C19.7025 24.36 19.3425 22.6667 19.3425 20.72V7.68002H26.1425V19.8C26.1425 21.2934 26.5291 22.4534 27.3025 23.28C28.0758 24.1067 29.1158 24.52 30.4225 24.52C31.7558 24.52 32.8091 24.1067 33.5825 23.28C34.3558 22.4534 34.7425 21.2934 34.7425 19.8V7.68002H41.5825Z" fill="#141414"/>
<path d="M45.1356 18.84C45.1356 16.52 45.6023 14.4934 46.5356 12.76C47.4956 11.0267 48.8156 9.69336 50.4956 8.76002C52.2023 7.82669 54.1489 7.36002 56.3356 7.36002C59.1356 7.36002 61.4689 8.09336 63.3356 9.56002C65.2289 11.0267 66.4689 13.0934 67.0556 15.76H59.7756C59.1623 14.0534 57.9756 13.2 56.2156 13.2C54.9623 13.2 53.9623 13.6934 53.2156 14.68C52.4689 15.64 52.0956 17.0267 52.0956 18.84C52.0956 20.6534 52.4689 22.0534 53.2156 23.04C53.9623 24 54.9623 24.48 56.2156 24.48C57.9756 24.48 59.1623 23.6267 59.7756 21.92H67.0556C66.4689 24.5334 65.2289 26.5867 63.3356 28.08C61.4423 29.5734 59.1089 30.32 56.3356 30.32C54.1489 30.32 52.2023 29.8534 50.4956 28.92C48.8156 27.9867 47.4956 26.6534 46.5356 24.92C45.6023 23.1867 45.1356 21.16 45.1356 18.84Z" fill="#141414"/>
<path d="M69.3544 18.8C69.3544 16.5067 69.781 14.4934 70.6344 12.76C71.5144 11.0267 72.701 9.69336 74.1944 8.76002C75.6877 7.82669 77.3544 7.36002 79.1944 7.36002C80.7677 7.36002 82.141 7.68002 83.3144 8.32002C84.5144 8.96002 85.4344 9.80002 86.0744 10.84V7.68002H92.9144V30H86.0744V26.84C85.4077 27.88 84.4744 28.72 83.2744 29.36C82.101 30 80.7277 30.32 79.1544 30.32C77.341 30.32 75.6877 29.8534 74.1944 28.92C72.701 27.96 71.5144 26.6134 70.6344 24.88C69.781 23.12 69.3544 21.0934 69.3544 18.8ZM86.0744 18.84C86.0744 17.1334 85.5944 15.7867 84.6344 14.8C83.701 13.8134 82.5544 13.32 81.1944 13.32C79.8344 13.32 78.6744 13.8134 77.7144 14.8C76.781 15.76 76.3144 17.0934 76.3144 18.8C76.3144 20.5067 76.781 21.8667 77.7144 22.88C78.6744 23.8667 79.8344 24.36 81.1944 24.36C82.5544 24.36 83.701 23.8667 84.6344 22.88C85.5944 21.8934 86.0744 20.5467 86.0744 18.84Z" fill="#141414"/>
<path d="M106.943 30.32C104.996 30.32 103.263 29.9867 101.743 29.32C100.223 28.6534 99.0228 27.7467 98.1428 26.6C97.2628 25.4267 96.7695 24.12 96.6628 22.68H103.423C103.503 23.4534 103.863 24.08 104.503 24.56C105.143 25.04 105.929 25.28 106.863 25.28C107.716 25.28 108.369 25.12 108.823 24.8C109.303 24.4534 109.543 24.0134 109.543 23.48C109.543 22.84 109.209 22.3734 108.543 22.08C107.876 21.76 106.796 21.4134 105.303 21.04C103.703 20.6667 102.369 20.28 101.303 19.88C100.236 19.4534 99.3161 18.8 98.5428 17.92C97.7695 17.0134 97.3828 15.8 97.3828 14.28C97.3828 13 97.7295 11.84 98.4228 10.8C99.1428 9.73336 100.183 8.89336 101.543 8.28002C102.929 7.66669 104.569 7.36002 106.463 7.36002C109.263 7.36002 111.463 8.05336 113.063 9.44003C114.689 10.8267 115.623 12.6667 115.863 14.96H109.543C109.436 14.1867 109.089 13.5734 108.503 13.12C107.943 12.6667 107.196 12.44 106.263 12.44C105.463 12.44 104.849 12.6 104.423 12.92C103.996 13.2134 103.783 13.6267 103.783 14.16C103.783 14.8 104.116 15.28 104.783 15.6C105.476 15.92 106.543 16.24 107.983 16.56C109.636 16.9867 110.983 17.4134 112.023 17.84C113.063 18.24 113.969 18.9067 114.743 19.84C115.543 20.7467 115.956 21.9734 115.983 23.52C115.983 24.8267 115.609 26 114.863 27.04C114.143 28.0534 113.089 28.8534 111.703 29.44C110.343 30.0267 108.756 30.32 106.943 30.32Z" fill="#141414"/>
<path d="M127.484 15.92C127.484 13.1467 128.084 10.68 129.284 8.52003C130.484 6.33336 132.151 4.64002 134.284 3.44002C136.444 2.21336 138.884 1.60002 141.604 1.60002C144.937 1.60002 147.791 2.48002 150.164 4.24002C152.537 6.00002 154.124 8.40002 154.924 11.44H147.404C146.844 10.2667 146.044 9.37336 145.004 8.76002C143.991 8.14669 142.831 7.84002 141.524 7.84002C139.417 7.84002 137.711 8.57336 136.404 10.04C135.097 11.5067 134.444 13.4667 134.444 15.92C134.444 18.3734 135.097 20.3334 136.404 21.8C137.711 23.2667 139.417 24 141.524 24C142.831 24 143.991 23.6934 145.004 23.08C146.044 22.4667 146.844 21.5734 147.404 20.4H154.924C154.124 23.44 152.537 25.84 150.164 27.6C147.791 29.3334 144.937 30.2 141.604 30.2C138.884 30.2 136.444 29.6 134.284 28.4C132.151 27.1734 130.484 25.48 129.284 23.32C128.084 21.16 127.484 18.6934 127.484 15.92Z" fill="#141414"/>
<path d="M157.753 18.8C157.753 16.5067 158.179 14.4934 159.033 12.76C159.913 11.0267 161.099 9.69336 162.593 8.76002C164.086 7.82669 165.753 7.36002 167.593 7.36002C169.166 7.36002 170.539 7.68002 171.713 8.32002C172.913 8.96002 173.833 9.80002 174.473 10.84V7.68002H181.313V30H174.473V26.84C173.806 27.88 172.873 28.72 171.673 29.36C170.499 30 169.126 30.32 167.553 30.32C165.739 30.32 164.086 29.8534 162.593 28.92C161.099 27.96 159.913 26.6134 159.033 24.88C158.179 23.12 157.753 21.0934 157.753 18.8ZM174.473 18.84C174.473 17.1334 173.993 15.7867 173.033 14.8C172.099 13.8134 170.953 13.32 169.593 13.32C168.233 13.32 167.073 13.8134 166.113 14.8C165.179 15.76 164.713 17.0934 164.713 18.8C164.713 20.5067 165.179 21.8667 166.113 22.88C167.073 23.8667 168.233 24.36 169.593 24.36C170.953 24.36 172.099 23.8667 173.033 22.88C173.993 21.8934 174.473 20.5467 174.473 18.84Z" fill="#141414"/>
<path d="M193.101 0.400024V30H186.261V0.400024H193.101Z" fill="#141414"/>
<path d="M226.538 7.44002C229.311 7.44002 231.511 8.28002 233.138 9.96002C234.791 11.64 235.618 13.9734 235.618 16.96V30H228.818V17.88C228.818 16.44 228.431 15.3334 227.658 14.56C226.911 13.76 225.871 13.36 224.538 13.36C223.205 13.36 222.151 13.76 221.378 14.56C220.631 15.3334 220.258 16.44 220.258 17.88V30H213.458V17.88C213.458 16.44 213.071 15.3334 212.298 14.56C211.551 13.76 210.511 13.36 209.178 13.36C207.845 13.36 206.791 13.76 206.018 14.56C205.271 15.3334 204.898 16.44 204.898 17.88V30H198.058V7.68002H204.898V10.48C205.591 9.54669 206.498 8.81336 207.618 8.28002C208.738 7.72002 210.005 7.44002 211.418 7.44002C213.098 7.44002 214.591 7.80002 215.898 8.52003C217.231 9.24002 218.271 10.2667 219.018 11.6C219.791 10.3734 220.845 9.37336 222.178 8.60002C223.511 7.82669 224.965 7.44002 226.538 7.44002Z" fill="#141414"/>
<path d="M250.562 30.32C248.375 30.32 246.402 29.8534 244.642 28.92C242.909 27.9867 241.535 26.6534 240.522 24.92C239.535 23.1867 239.042 21.16 239.042 18.84C239.042 16.5467 239.549 14.5334 240.562 12.8C241.575 11.04 242.962 9.69336 244.722 8.76002C246.482 7.82669 248.455 7.36002 250.642 7.36002C252.829 7.36002 254.802 7.82669 256.562 8.76002C258.322 9.69336 259.709 11.04 260.722 12.8C261.735 14.5334 262.242 16.5467 262.242 18.84C262.242 21.1334 261.722 23.16 260.682 24.92C259.669 26.6534 258.269 27.9867 256.482 28.92C254.722 29.8534 252.749 30.32 250.562 30.32ZM250.562 24.4C251.869 24.4 252.975 23.92 253.882 22.96C254.815 22 255.282 20.6267 255.282 18.84C255.282 17.0534 254.829 15.68 253.922 14.72C253.042 13.76 251.949 13.28 250.642 13.28C249.309 13.28 248.202 13.76 247.322 14.72C246.442 15.6534 246.002 17.0267 246.002 18.84C246.002 20.6267 246.429 22 247.282 22.96C248.162 23.92 249.255 24.4 250.562 24.4Z" fill="#141414"/>
<path d="M279.471 7.44002C282.084 7.44002 284.164 8.29336 285.711 10C287.284 11.68 288.071 14 288.071 16.96V30H281.271V17.88C281.271 16.3867 280.884 15.2267 280.111 14.4C279.337 13.5734 278.297 13.16 276.991 13.16C275.684 13.16 274.644 13.5734 273.871 14.4C273.097 15.2267 272.711 16.3867 272.711 17.88V30H265.871V7.68002H272.711V10.64C273.404 9.65336 274.337 8.88002 275.511 8.32002C276.684 7.73336 278.004 7.44002 279.471 7.44002Z" fill="#141414"/>
</svg>
